<svg width="20" height="20" viewBox="0 0 20 20" fill="none" xmlns="http://www.w3.org/2000/svg">
  <path d="M14 1.66675H11.8333C9.16667 1.66675 7.5 3.33341 7.5 6.00008V9.37508H12.7083C13.05 9.37508 13.3333 9.65842 13.3333 10.0001C13.3333 10.3417 13.05 10.6251 12.7083 10.6251H7.5V14.0001C7.5 16.6667 9.16667 18.3334 11.8333 18.3334H13.9917C16.6583 18.3334 18.325 16.6667 18.325 14.0001V6.00008C18.3333 3.33341 16.6667 1.66675 14 1.66675Z" fill="#F9AA9F" />
  <path d="M3.79995 9.37503L5.52495 7.65003C5.64995 7.52503 5.70828 7.3667 5.70828 7.20837C5.70828 7.05003 5.64995 6.88337 5.52495 6.7667C5.28328 6.52503 4.88328 6.52503 4.64162 6.7667L1.84995 9.55837C1.60828 9.80003 1.60828 10.2 1.84995 10.4417L4.64162 13.2334C4.88328 13.475 5.28328 13.475 5.52495 13.2334C5.76662 12.9917 5.76662 12.5917 5.52495 12.35L3.79995 10.625H7.49995V9.37503H3.79995Z" fill="#F9AA9F" />
</svg>
