<svg width="20" height="20" viewBox="0 0 20 20" fill="none" xmlns="http://www.w3.org/2000/svg">
  <path d="M18.3084 15.0001V15.8334C18.3084 17.2084 18.3084 18.3334 15.8084 18.3334H4.14172C1.64172 18.3334 1.64172 17.2084 1.64172 15.8334V15.0001C1.64172 14.5417 2.01672 14.1667 2.47506 14.1667H17.4751C17.9334 14.1667 18.3084 14.5417 18.3084 15.0001Z" fill="#989FAD" />
  <path d="M12.0083 4.31672C12.05 4.15005 12.075 3.99172 12.0833 3.81672C12.1083 2.85005 11.5166 2.00005 10.5833 1.75005C9.18331 1.36672 7.91664 2.41672 7.91664 3.75005C7.91664 3.95005 7.94164 4.13339 7.99164 4.31672C4.98331 4.95839 2.72498 7.63339 2.72498 10.8334V12.0834C2.72498 12.5417 3.09998 12.9167 3.55831 12.9167H16.4333C16.8916 12.9167 17.2666 12.5417 17.2666 12.0834V10.8334C17.2666 7.63339 15.0166 4.96672 12.0083 4.31672ZM12.5 9.79172H7.49998C7.15831 9.79172 6.87498 9.50839 6.87498 9.16672C6.87498 8.82505 7.15831 8.54172 7.49998 8.54172H12.5C12.8416 8.54172 13.125 8.82505 13.125 9.16672C13.125 9.50839 12.8416 9.79172 12.5 9.79172Z" fill="#989FAD" />
</svg>
