<svg width="20" height="20" viewBox="0 0 20 20" fill="none" xmlns="http://www.w3.org/2000/svg">
  <path d="M18.6333 6.89175L18.3916 4.58341C18.0416 2.06675 16.9 1.04175 14.4583 1.04175H12.4916H11.2583H8.72495H7.49162H5.49162C3.04162 1.04175 1.90829 2.06675 1.54995 4.60841L1.32495 6.90008C1.24162 7.79175 1.48329 8.65841 2.00829 9.33341C2.64162 10.1584 3.61662 10.6251 4.69995 10.6251C5.74995 10.6251 6.75829 10.1001 7.39162 9.25841C7.95829 10.1001 8.92495 10.6251 9.99995 10.6251C11.075 10.6251 12.0166 10.1251 12.5916 9.29175C13.2333 10.1167 14.225 10.6251 15.2583 10.6251C16.3666 10.6251 17.3666 10.1334 17.9916 9.26675C18.4916 8.60008 18.7166 7.75841 18.6333 6.89175Z" fill="#989FAD" />
  <path d="M9.45831 13.8834C8.39998 13.9917 7.59998 14.8917 7.59998 15.9584V18.2417C7.59998 18.4667 7.78331 18.65 8.00831 18.65H11.9833C12.2083 18.65 12.3916 18.4667 12.3916 18.2417V16.25C12.4 14.5084 11.375 13.6834 9.45831 13.8834Z" fill="#989FAD" />
  <path d="M17.8083 12.0001V14.4834C17.8083 16.7834 15.9417 18.6501 13.6417 18.6501C13.4167 18.6501 13.2333 18.4667 13.2333 18.2417V16.2501C13.2333 15.1834 12.9083 14.3501 12.275 13.7834C11.7167 13.2751 10.9583 13.0251 10.0167 13.0251C9.80832 13.0251 9.59998 13.0334 9.37498 13.0584C7.89165 13.2084 6.76665 14.4584 6.76665 15.9584V18.2417C6.76665 18.4667 6.58332 18.6501 6.35832 18.6501C4.05832 18.6501 2.19165 16.7834 2.19165 14.4834V12.0167C2.19165 11.4334 2.76665 11.0417 3.30832 11.2334C3.53332 11.3084 3.75832 11.3667 3.99165 11.4001C4.09165 11.4167 4.19998 11.4334 4.29998 11.4334C4.43332 11.4501 4.56665 11.4584 4.69998 11.4584C5.66665 11.4584 6.61665 11.1001 7.36665 10.4834C8.08332 11.1001 9.01665 11.4584 9.99998 11.4584C10.9917 11.4584 11.9083 11.1167 12.625 10.5001C13.375 11.1084 14.3083 11.4584 15.2583 11.4584C15.4083 11.4584 15.5583 11.4501 15.7 11.4334C15.8 11.4251 15.8916 11.4167 15.9833 11.4001C16.2416 11.3667 16.475 11.2917 16.7083 11.2167C17.25 11.0334 17.8083 11.4334 17.8083 12.0001Z" fill="#989FAD" />
</svg>
