<svg width="20" height="20" viewBox="0 0 20 20" fill="none" xmlns="http://www.w3.org/2000/svg">
  <path d="M14.8417 4.57508V5.19175L11.8917 3.48341C10.775 2.84175 9.21666 2.84175 8.10832 3.48341L5.15833 5.20008V4.57508C5.15833 2.70008 6.18333 1.66675 8.05833 1.66675H11.9417C13.8167 1.66675 14.8417 2.70008 14.8417 4.57508Z" fill="#989FAD" />
  <path d="M14.8666 6.64162L14.75 6.58328L13.6166 5.93328L11.2666 4.57495C10.55 4.15828 9.44996 4.15828 8.73329 4.57495L6.38329 5.92495L5.24996 6.59162L5.09996 6.66662C3.64163 7.64995 3.54163 7.83328 3.54163 9.40829V13.175C3.54163 14.75 3.64163 14.9333 5.13329 15.9416L8.73329 18.0166C9.09163 18.2333 9.54163 18.325 9.99996 18.325C10.45 18.325 10.9083 18.225 11.2666 18.0166L14.9 15.9166C16.3666 14.9333 16.4583 14.7583 16.4583 13.175V9.40829C16.4583 7.83328 16.3583 7.64995 14.8666 6.64162ZM12.325 11.25L11.8166 11.875C11.7333 11.9666 11.675 12.1416 11.6833 12.2666L11.7333 13.0666C11.7666 13.5583 11.4166 13.8083 10.9583 13.6333L10.2166 13.3333C10.1 13.2916 9.90829 13.2916 9.79163 13.3333L9.04996 13.625C8.59163 13.8083 8.24163 13.55 8.27496 13.0583L8.32496 12.2583C8.33329 12.1333 8.27496 11.9583 8.19163 11.8666L7.67496 11.25C7.35829 10.875 7.49996 10.4583 7.97496 10.3333L8.74996 10.1333C8.87496 10.1 9.01663 9.98328 9.08329 9.88328L9.51663 9.21662C9.78329 8.79995 10.2083 8.79995 10.4833 9.21662L10.9166 9.88328C10.9833 9.99162 11.1333 10.1 11.25 10.1333L12.025 10.3333C12.5 10.4583 12.6416 10.875 12.325 11.25Z" fill="#989FAD" />
</svg>
