<svg width="20" height="20" viewBox="0 0 20 20" fill="none" xmlns="http://www.w3.org/2000/svg">
  <path d="M13.4916 1.66675H6.50829C3.47496 1.66675 1.66663 3.47508 1.66663 6.50841V13.4917C1.66663 15.8334 2.74163 17.4417 4.63329 18.0501C5.18329 18.2417 5.81663 18.3334 6.50829 18.3334H13.4916C14.1833 18.3334 14.8166 18.2417 15.3666 18.0501C17.2583 17.4417 18.3333 15.8334 18.3333 13.4917V6.50841C18.3333 3.47508 16.525 1.66675 13.4916 1.66675ZM17.0833 13.4917C17.0833 15.2751 16.3833 16.4001 14.975 16.8667C14.1666 15.2751 12.25 14.1417 9.99996 14.1417C7.74996 14.1417 5.84163 15.2667 5.02496 16.8667H5.01663C3.62496 16.4167 2.91663 15.2834 2.91663 13.5001V6.50841C2.91663 4.15841 4.15829 2.91675 6.50829 2.91675H13.4916C15.8416 2.91675 17.0833 4.15841 17.0833 6.50841V13.4917Z" fill="#858D9D" />
  <path d="M9.99993 6.66675C8.34993 6.66675 7.0166 8.00008 7.0166 9.65008C7.0166 11.3001 8.34993 12.6417 9.99993 12.6417C11.6499 12.6417 12.9833 11.3001 12.9833 9.65008C12.9833 8.00008 11.6499 6.66675 9.99993 6.66675Z" fill="#858D9D" />
</svg>
