<svg width="16" height="16" viewBox="0 0 16 16" fill="none" xmlns="http://www.w3.org/2000/svg">
  <path d="M5.33335 2.66659H4.80015C4.05341 2.66659 3.67977 2.66659 3.39455 2.81191C3.14367 2.93974 2.93984 3.14357 2.81201 3.39445C2.66669 3.67967 2.66669 4.05331 2.66669 4.80005V5.33325M5.33335 2.66659H10.6667M5.33335 2.66659V1.33325M10.6667 2.66659H11.2002C11.9469 2.66659 12.3197 2.66659 12.6049 2.81191C12.8558 2.93974 13.0603 3.14357 13.1882 3.39445C13.3334 3.67939 13.3334 4.05258 13.3334 4.79786V5.33325M10.6667 2.66659V1.33325M2.66669 5.33325V11.2C2.66669 11.9468 2.66669 12.32 2.81201 12.6052C2.93984 12.8561 3.14367 13.0602 3.39455 13.1881C3.67949 13.3333 4.05268 13.3333 4.79796 13.3333H11.2021C11.9474 13.3333 12.32 13.3333 12.6049 13.1881C12.8558 13.0602 13.0603 12.8561 13.1882 12.6052C13.3334 12.3202 13.3334 11.9476 13.3334 11.2023V5.33325M2.66669 5.33325H13.3334M10.6667 10.6666H10.668L10.668 10.6679L10.6667 10.6679V10.6666ZM8.00002 10.6666H8.00135L8.00132 10.6679L8.00002 10.6679V10.6666ZM5.33335 10.6666H5.33469L5.33466 10.6679L5.33335 10.6679V10.6666ZM10.668 7.99992V8.00125L10.6667 8.00122V7.99992H10.668ZM8.00002 7.99992H8.00135L8.00132 8.00125L8.00002 8.00122V7.99992ZM5.33335 7.99992H5.33469L5.33466 8.00125L5.33335 8.00122V7.99992Z" stroke="#E9E9E9" stroke-width="1.5" stroke-linecap="round" stroke-linejoin="round" />
</svg>
