<svg width="16" height="16" viewBox="0 0 16 16" fill="none" xmlns="http://www.w3.org/2000/svg">
  <path d="M2.66669 5.33325H13.3334M2.66669 5.33325V11.2C2.66669 11.9468 2.66669 12.32 2.81201 12.6052C2.93984 12.8561 3.14367 13.0602 3.39455 13.1881C3.67949 13.3333 4.05268 13.3333 4.79796 13.3333H11.2021C11.9474 13.3333 12.32 13.3333 12.6049 13.1881C12.8558 13.0602 13.0603 12.8561 13.1882 12.6052C13.3334 12.3202 13.3334 11.9476 13.3334 11.2023V5.33325M2.66669 5.33325V4.80005C2.66669 4.05331 2.66669 3.67967 2.81201 3.39445C2.93984 3.14357 3.14367 2.93974 3.39455 2.81191C3.67977 2.66659 4.05341 2.66659 4.80015 2.66659H5.33335M13.3334 5.33325V4.79786C13.3334 4.05258 13.3334 3.67939 13.1882 3.39445C13.0603 3.14357 12.8558 2.93974 12.6049 2.81191C12.3197 2.66659 11.9469 2.66659 11.2002 2.66659H10.6667M5.33335 2.66659H10.6667M5.33335 2.66659V1.33325M10.6667 2.66659V1.33325M7.83335 10.6666C7.9254 10.6666 8.00002 10.592 8.00002 10.4999V8.16659C8.00002 8.07454 7.9254 7.99992 7.83335 7.99992H5.50002C5.40797 7.99992 5.33335 8.07454 5.33335 8.16659V10.4999C5.33335 10.592 5.40797 10.6666 5.50002 10.6666H7.83335Z" stroke="#E9E9E9" stroke-width="1.5" stroke-linecap="round" stroke-linejoin="round" />
</svg>
