<svg width="18" height="18" viewBox="0 0 18 18" fill="none" xmlns="http://www.w3.org/2000/svg">
  <path d="M16.1692 8.05541L15.1492 6.87041C14.9542 6.64541 14.7967 6.22541 14.7967 5.92541V4.65041C14.7967 3.85541 14.1442 3.20291 13.3492 3.20291H12.0742C11.7817 3.20291 11.3542 3.04541 11.1292 2.85041L9.94418 1.83041C9.42668 1.38791 8.57918 1.38791 8.05418 1.83041L6.87668 2.85791C6.65168 3.04541 6.22418 3.20291 5.93168 3.20291H4.63418C3.83918 3.20291 3.18668 3.85541 3.18668 4.65041V5.93291C3.18668 6.22541 3.02918 6.64541 2.84168 6.87041L1.82918 8.06291C1.39418 8.58041 1.39418 9.42041 1.82918 9.93791L2.84168 11.1304C3.02918 11.3554 3.18668 11.7754 3.18668 12.0679V13.3504C3.18668 14.1454 3.83918 14.7979 4.63418 14.7979H5.93168C6.22418 14.7979 6.65168 14.9554 6.87668 15.1504L8.06168 16.1704C8.57918 16.6129 9.42668 16.6129 9.95168 16.1704L11.1367 15.1504C11.3617 14.9554 11.7817 14.7979 12.0817 14.7979H13.3567C14.1517 14.7979 14.8042 14.1454 14.8042 13.3504V12.0754C14.8042 11.7829 14.9617 11.3554 15.1567 11.1304L16.1767 9.94541C16.6117 9.42791 16.6117 8.57291 16.1692 8.05541ZM12.1192 7.58291L8.49668 11.2054C8.39168 11.3104 8.24918 11.3704 8.09918 11.3704C7.94918 11.3704 7.80668 11.3104 7.70168 11.2054L5.88668 9.39041C5.66918 9.17291 5.66918 8.81291 5.88668 8.59541C6.10418 8.37791 6.46418 8.37791 6.68168 8.59541L8.09918 10.0129L11.3242 6.78791C11.5417 6.57041 11.9017 6.57041 12.1192 6.78791C12.3367 7.00541 12.3367 7.36541 12.1192 7.58291Z" fill="#065DFF" />
</svg>