<svg width="211" height="43" viewBox="0 0 211 43" fill="none" xmlns="http://www.w3.org/2000/svg" style="width:auto;height:auto;" class=""><path d="M71.4163 21.1437C71.4163 29.3509 69.5627 31.7693 62.7082 31.7693C55.8536 31.7693 54 29.3509 54 21.1437C54 12.9366 55.8536 10.4374 62.7082 10.4374C69.5627 10.4374 71.4163 12.8815 71.4163 21.1437ZM58.2741 21.1437C58.2741 26.4179 59.001 28.0461 62.7082 28.0461C66.4153 28.0461 67.1422 26.4142 67.1422 21.1437C67.1422 15.8733 66.4153 14.1605 62.7082 14.1605C59.001 14.1605 58.2741 15.8181 58.2741 21.1437Z" fill="#596ACA"></path><path d="M87.5932 22.8014V31.1996C87.5932 31.4973 87.4333 31.6333 87.1643 31.6333H83.9951C83.7261 31.6333 83.5916 31.4973 83.5916 31.1996V23.8342C83.5916 19.9493 83.1882 19.7582 80.7168 19.7582H78.2708V31.1996C78.2708 31.4973 78.1363 31.6333 77.8674 31.6333H74.669C74.4001 31.6333 74.2656 31.4973 74.2656 31.1996V17.1487C74.2656 16.8215 74.4001 16.7958 74.669 16.7407C76.4681 16.3327 79.0776 16.2776 81.0911 16.2776C86.2521 16.2776 87.5932 17.2552 87.5932 22.8014Z" fill="#596ACA"></path><path d="M94.2843 10.5991C94.5533 10.5991 94.6877 10.7351 94.6877 11.0071V31.1996C94.6877 31.4973 94.5533 31.6333 94.2843 31.6333H91.1114C90.8425 31.6333 90.708 31.4973 90.708 31.1996V11.0071C90.708 10.7351 90.8425 10.5991 91.1114 10.5991H94.2843Z" fill="#596ACA"></path><path d="M102.236 12.1758C102.236 13.5614 101.404 14.3774 99.9246 14.3774C98.4454 14.3774 97.5586 13.5614 97.5586 12.1758C97.5586 10.7902 98.42 10 99.9246 10C101.429 10 102.236 10.7865 102.236 12.1758ZM101.484 16.4172C101.753 16.4172 101.887 16.5532 101.887 16.8252V31.2032C101.887 31.5009 101.753 31.6369 101.484 31.6369H98.3109C98.042 31.6369 97.9075 31.5009 97.9075 31.2032V16.8252C97.9075 16.5532 98.042 16.4172 98.3109 16.4172H101.484Z" fill="#596ACA"></path><path d="M118.413 22.8014V31.1996C118.413 31.4973 118.254 31.6333 117.985 31.6333H114.815C114.546 31.6333 114.412 31.4973 114.412 31.1996V23.8342C114.412 19.9493 114.009 19.7582 111.537 19.7582H109.091V31.1996C109.091 31.4973 108.957 31.6333 108.688 31.6333H105.489C105.22 31.6333 105.086 31.4973 105.086 31.1996V17.1487C105.086 16.8215 105.22 16.7958 105.489 16.7407C107.288 16.3327 109.898 16.2776 111.911 16.2776C117.072 16.2776 118.413 17.2552 118.413 22.8014Z" fill="#596ACA"></path><path d="M134.431 23.8341V24.6758C134.431 25.2197 134.271 25.4109 133.569 25.4109H125.13C125.185 27.855 125.828 28.2924 128.169 28.2924H132.926C133.195 28.2924 133.33 28.4284 133.33 28.7003V30.957C133.33 31.2547 133.195 31.365 132.952 31.3907C131.527 31.6884 129.593 31.7729 127.82 31.7729C122.39 31.7729 121.074 30.2256 121.074 24.0289C121.074 17.8322 122.39 16.2849 127.82 16.2849C133.25 16.2849 134.405 17.7808 134.431 23.8415V23.8341ZM125.105 22.7756H130.426C130.4 20.383 129.782 19.7581 127.82 19.7581C125.857 19.7581 125.134 20.383 125.105 22.7756Z" fill="#596ACA"></path><path d="M152.595 16.2812C152.595 19.2178 151.763 20.6292 149.557 21.0372V21.118C152.243 21.4451 153.05 23.1027 153.05 26.0099C153.05 30.4388 150.818 31.7729 145.795 31.7729C143.593 31.7729 140.017 31.6921 137.651 31.501C137.327 31.4752 137.247 31.3907 137.247 31.1187V11.1173C137.247 10.8196 137.327 10.7645 137.651 10.7351C140.017 10.5182 142.946 10.4374 145.148 10.4374C150.364 10.4374 152.592 11.9039 152.592 16.2812H152.595ZM141.47 14.1605V19.567H144.211C147.22 19.567 148.321 19.2142 148.321 16.9318C148.321 14.6494 147.245 14.1605 144.72 14.1605H141.467H141.47ZM141.47 22.6396V28.0461H145.501C147.812 28.0461 148.779 27.5021 148.779 25.4366C148.779 23.2093 147.678 22.6359 145.526 22.6359H141.467L141.47 22.6396Z" fill="#B8C2D8"></path><path d="M169.016 24.0253C169.016 30.2219 167.755 31.7693 162.161 31.7693C156.568 31.7693 155.307 30.2219 155.307 24.0253C155.307 17.8286 156.597 16.2812 162.161 16.2812C167.726 16.2812 169.016 17.8029 169.016 24.0253ZM159.315 24.0253C159.315 27.4507 159.719 28.2924 162.165 28.2924C164.611 28.2924 165.04 27.4507 165.04 24.0253C165.04 20.5998 164.636 19.7582 162.165 19.7582C159.693 19.7582 159.315 20.5998 159.315 24.0253Z" fill="#B8C2D8"></path><path d="M182.987 16.4172C183.282 16.4172 183.445 16.5532 183.445 16.8252V18.6739C183.445 18.8908 183.365 19.0268 183.256 19.1921L176.645 28.1601H183.336C183.63 28.1601 183.794 28.2961 183.794 28.568V31.2033C183.794 31.501 183.634 31.637 183.336 31.637H171.35C171.026 31.637 170.866 31.501 170.866 31.2033V29.4354C170.866 29.2443 170.921 29.1083 171.055 28.9172L177.881 19.8133H171.644C171.321 19.8133 171.186 19.6773 171.186 19.4053V16.8252C171.186 16.5532 171.321 16.4172 171.644 16.4172H182.987Z" fill="#B8C2D8"></path><path d="M199.382 24.0253C199.382 30.2219 198.121 31.7693 192.527 31.7693C186.934 31.7693 185.673 30.2219 185.673 24.0253C185.673 17.8286 186.963 16.2812 192.527 16.2812C198.092 16.2812 199.382 17.8029 199.382 24.0253ZM189.682 24.0253C189.682 27.4507 190.085 28.2924 192.531 28.2924C194.977 28.2924 195.406 27.4507 195.406 24.0253C195.406 20.5998 195.002 19.7582 192.531 19.7582C190.06 19.7582 189.682 20.5998 189.682 24.0253Z" fill="#B8C2D8"></path><path d="M210.533 16.579C210.827 16.6598 210.962 16.7701 210.962 17.1229V19.3502C210.962 19.6222 210.802 19.7582 210.504 19.7582H207.978C206.582 19.7582 206.095 19.975 206.095 21.1438V31.1996C206.095 31.4973 205.961 31.6333 205.692 31.6333H202.493C202.224 31.6333 202.09 31.4973 202.09 31.1996V20.111C202.09 16.6856 204.507 16.2776 206.953 16.2776C207.731 16.2776 209.588 16.3584 210.525 16.5753L210.533 16.579Z" fill="#B8C2D8"></path><rect width="42" height="42" rx="12" fill="url(#paint0_linear_275_3904)"></rect><g filter="url(#filter0_ddddd_275_3904)"><path fill-rule="evenodd" clip-rule="evenodd" d="M33.5305 15.9748C32.9171 15.6857 31.6763 15.2509 29.3489 14.9141C28.6474 14.8111 27.8441 14.7181 26.928 14.6427C25.0683 9.85232 23.8358 9.14859 23.8358 9.14859C23.1343 8.44234 22.1219 8 20.9967 8C19.6569 8 18.4795 8.62582 17.7917 9.57585C17.0996 10.013 15.2175 14.4132 15.1237 14.6325L15.1204 14.6402C14.174 14.7206 13.3487 14.8186 12.6279 14.9267C10.3033 15.271 9.06806 15.7159 8.45733 16.0125C8.1382 16.1658 7.95663 16.485 8.0089 16.8117C8.19597 18.0457 8.69942 21.2854 8.96902 22.4943C9.11758 23.1603 9.45046 24.236 9.65954 24.892C9.67055 24.9272 9.6843 24.9624 9.70356 24.9951C10.9911 29.597 15.5606 33 20.9994 33C26.4383 33 31.0243 29.5869 32.3008 24.9725C32.3228 24.9322 32.3393 24.8895 32.3558 24.8443C32.5622 24.2034 32.8895 23.1578 33.0408 22.4968C33.3187 21.2779 33.8084 18.0181 33.9927 16.7765C34.0395 16.4473 33.8579 16.1306 33.536 15.9773L33.5305 15.9748ZM20.9939 14.4215C19.7917 14.4215 18.694 14.4442 17.6954 14.4844C17.6954 14.4844 19.1452 11.0461 19.7449 10.727C20.0228 10.3726 20.4795 10.1413 20.9939 10.1413C21.4203 10.1413 21.8055 10.2997 22.0834 10.556H22.0861C22.1439 10.5762 22.9362 10.918 24.3282 14.4844C23.3213 14.4442 22.2127 14.4215 20.9939 14.4215ZM24.5 18C24.2239 18 24 17.7761 24 17.5L24 15.5C24 15.2239 24.2239 15 24.5 15H26.5C26.7761 15 27 15.2239 27 15.5V17.5C27 17.7761 26.7761 18 26.5 18H24.5ZM15 17.5C15 17.7761 15.2239 18 15.5 18H17.5C17.7761 18 18 17.7761 18 17.5L18 15.5C18 15.2239 17.7761 15 17.5 15H15.5C15.2239 15 15 15.2239 15 15.5L15 17.5Z" fill="white"></path></g><defs><filter id="filter0_ddddd_275_3904" x="5" y="7" width="32" height="36" filterUnits="userSpaceOnUse" color-interpolation-filters="sRGB"><feFlood flood-opacity="0" result="BackgroundImageFix"></feFlood><feColorMatrix in="SourceAlpha" type="matrix" values="0 0 0 0 0 0 0 0 0 0 0 0 0 0 0 0 0 0 127 0" result="hardAlpha"></feColorMatrix><feOffset></feOffset><feColorMatrix type="matrix" values="0 0 0 0 0.0313726 0 0 0 0 0.0745098 0 0 0 0 0.290196 0 0 0 0.16 0"></feColorMatrix><feBlend mode="normal" in2="BackgroundImageFix" result="effect1_dropShadow_275_3904"></feBlend><feColorMatrix in="SourceAlpha" type="matrix" values="0 0 0 0 0 0 0 0 0 0 0 0 0 0 0 0 0 0 127 0" result="hardAlpha"></feColorMatrix><feOffset></feOffset><feGaussianBlur stdDeviation="0.5"></feGaussianBlur><feColorMatrix type="matrix" values="0 0 0 0 0.0313726 0 0 0 0 0.0745098 0 0 0 0 0.290196 0 0 0 0.16 0"></feColorMatrix><feBlend mode="normal" in2="effect1_dropShadow_275_3904" result="effect2_dropShadow_275_3904"></feBlend><feColorMatrix in="SourceAlpha" type="matrix" values="0 0 0 0 0 0 0 0 0 0 0 0 0 0 0 0 0 0 127 0" result="hardAlpha"></feColorMatrix><feOffset dy="2"></feOffset><feGaussianBlur stdDeviation="1"></feGaussianBlur><feColorMatrix type="matrix" values="0 0 0 0 0.0313726 0 0 0 0 0.0745098 0 0 0 0 0.290196 0 0 0 0.14 0"></feColorMatrix><feBlend mode="normal" in2="effect2_dropShadow_275_3904" result="effect3_dropShadow_275_3904"></feBlend><feColorMatrix in="SourceAlpha" type="matrix" values="0 0 0 0 0 0 0 0 0 0 0 0 0 0 0 0 0 0 127 0" result="hardAlpha"></feColorMatrix><feOffset dy="4"></feOffset><feGaussianBlur stdDeviation="1"></feGaussianBlur><feColorMatrix type="matrix" values="0 0 0 0 0.0313726 0 0 0 0 0.0745098 0 0 0 0 0.290196 0 0 0 0.08 0"></feColorMatrix><feBlend mode="normal" in2="effect3_dropShadow_275_3904" result="effect4_dropShadow_275_3904"></feBlend><feColorMatrix in="SourceAlpha" type="matrix" values="0 0 0 0 0 0 0 0 0 0 0 0 0 0 0 0 0 0 127 0" result="hardAlpha"></feColorMatrix><feOffset dy="7"></feOffset><feGaussianBlur stdDeviation="1.5"></feGaussianBlur><feColorMatrix type="matrix" values="0 0 0 0 0.0313726 0 0 0 0 0.0745098 0 0 0 0 0.290196 0 0 0 0.02 0"></feColorMatrix><feBlend mode="normal" in2="effect4_dropShadow_275_3904" result="effect5_dropShadow_275_3904"></feBlend><feBlend mode="normal" in="SourceGraphic" in2="effect5_dropShadow_275_3904" result="shape"></feBlend></filter><linearGradient id="paint0_linear_275_3904" x1="21" y1="0" x2="21" y2="42" gradientUnits="userSpaceOnUse"><stop stop-color="#596ACA"></stop><stop offset="1" stop-color="#596ACA"></stop></linearGradient></defs></svg>