<svg width="556" height="276" viewBox="0 0 556 276" fill="none" xmlns="http://www.w3.org/2000/svg">
<path d="M399.326 0.886475C400.802 0.886634 402.278 0.892327 403.754 0.902344C404.529 0.903759 405.305 0.905174 406.104 0.906631C408.59 0.912247 411.076 0.924802 413.562 0.9375C415.244 0.942513 416.926 0.947076 418.607 0.951172C422.738 0.962221 426.869 0.979496 431 1C440.748 21.9852 450.473 42.9795 460.078 64.0305C460.732 65.4631 461.385 66.8956 462.039 68.3281C462.362 69.0359 462.685 69.7436 463.018 70.4728C466.829 78.8225 470.665 87.161 474.5 95.5C480.347 108.215 486.176 120.937 491.99 133.667C497.144 144.952 502.317 156.228 507.5 167.5C513.344 180.208 519.171 192.924 524.981 205.648C528.82 214.056 532.668 222.46 536.535 230.855C536.914 231.679 537.294 232.503 537.684 233.352C539.506 237.308 541.329 241.264 543.154 245.219C546.493 252.461 549.788 259.719 552.996 267.02C553.299 267.708 553.603 268.396 553.915 269.105C556 273.878 556 273.878 556 275C533.23 275 510.46 275 487 275C483.04 267.142 483.04 267.142 479 259.125C478.165 257.473 477.329 255.82 476.469 254.118C475.812 252.81 475.156 251.503 474.5 250.195C473.982 249.174 473.982 249.174 473.453 248.133C471 243.228 471 243.228 471 241C434.37 241 397.74 241 360 241C361.377 238.246 362.765 235.626 364.32 232.98C374.09 216.287 382.306 199.953 390 182C408.81 182 427.62 182 447 182C437.445 161.142 437.445 161.142 427.864 140.296C427.113 138.664 426.363 137.033 425.614 135.4C420.919 125.172 416.114 115.026 411 105C410.839 105.528 410.678 106.057 410.513 106.601C409.764 109.049 409.007 111.493 408.25 113.938C407.997 114.768 407.745 115.599 407.484 116.455C405.936 121.429 404.12 126.13 401.946 130.863C400.5 134.13 399.385 137.49 398.25 140.875C394.941 150.447 391.045 159.719 387 169C386.554 170.03 386.107 171.06 385.647 172.121C361.826 226.927 361.826 226.927 345 244C344.39 244.682 343.781 245.364 343.152 246.066C326.359 264.286 299.065 273.08 275 275C270.773 275.134 266.549 275.127 262.32 275.114C260.43 275.114 260.43 275.114 258.502 275.114C255.119 275.113 251.736 275.108 248.354 275.101C245.17 275.096 241.986 275.095 238.802 275.095C229.514 275.089 220.226 275.075 210.938 275.062C190.168 275.042 169.399 275.021 148 275C148 207.68 148 140.36 148 71C169.45 71 190.9 71 213 71C213 119.51 213 168.02 213 218C262.758 221.112 262.758 221.112 298.188 201.25C302.994 196.263 306.595 191.012 310 185C310.918 183.422 310.918 183.422 311.855 181.812C316.495 173.626 320.121 165.109 323.675 156.407C341.396 113.232 361.91 71.1093 382 29C382.337 28.2929 382.674 27.5858 383.022 26.8572C384.913 22.8939 386.807 18.9321 388.706 14.9728C389.541 13.2332 390.374 11.4928 391.207 9.75244C391.697 8.73457 392.187 7.71669 392.691 6.66797C393.116 5.78391 393.541 4.89986 393.979 3.98901C395.505 1.0169 395.505 1.0169 399.326 0.886475Z" fill="#03C3B5"/>
<path d="M0 1.0001C35.5424 0.933887 71.0848 0.878522 106.627 0.846899C110.829 0.843147 115.031 0.839264 119.232 0.8353C120.069 0.834513 120.905 0.833727 121.767 0.832916C135.288 0.819883 148.809 0.79624 162.33 0.768637C176.217 0.740525 190.104 0.723907 203.99 0.71783C212.551 0.713725 221.111 0.700789 229.671 0.676346C235.551 0.660417 241.431 0.655711 247.311 0.659591C250.697 0.661502 254.083 0.657023 257.469 0.642479C283.42 0.536525 283.42 0.536525 296 4.0001C296.743 4.18682 297.485 4.37355 298.25 4.56593C323.494 11.2744 343.224 28.2248 358.938 48.5001C360.425 52.0006 359.358 53.4983 358 57.0001C357.023 59.136 356.006 61.2541 354.959 63.3568C354.66 63.9608 354.36 64.5648 354.052 65.1871C353.07 67.1646 352.082 69.1391 351.094 71.1134C350.406 72.4924 349.719 73.8715 349.032 75.2506C347.595 78.1308 346.156 81.0094 344.714 83.8871C342.865 87.5804 341.024 91.2783 339.186 94.9774C337.772 97.8216 336.351 100.663 334.93 103.504C334.248 104.867 333.569 106.231 332.891 107.596C331.947 109.497 330.995 111.394 330.041 113.29C329.501 114.371 328.961 115.453 328.404 116.566C327 119 327 119 325 120C324.66 119.019 324.319 118.038 323.969 117.027C316.392 95.6951 304.733 74.3216 283.75 63.6251C281.846 62.7234 279.93 61.8463 278 61.0001C277.238 60.6505 276.476 60.301 275.69 59.9408C272.685 58.8898 270.339 58.739 267.16 58.7216C265.994 58.7105 264.828 58.6993 263.628 58.6878C262.353 58.6857 261.078 58.6835 259.764 58.6812C258.382 58.6718 257 58.6616 255.617 58.6505C251.922 58.6233 248.226 58.6078 244.53 58.5949C241.059 58.5809 237.589 58.5563 234.119 58.5326C223.975 58.4694 213.831 58.4233 203.688 58.3751C181.021 58.2513 158.354 58.1276 135 58.0001C135 129.61 135 201.22 135 275C113.55 275 92.1 275 70 275C70 203.39 70 131.78 70 58.0001C46.9 58.0001 23.8 58.0001 0 58.0001C0 39.1901 0 20.3801 0 1.0001Z" fill="#074B4E"/>
</svg>
