<svg width="134" height="36" viewBox="0 0 134 36" fill="none" xmlns="http://www.w3.org/2000/svg">
<g clip-path="url(#clip0_3927_5574)">
<path d="M30.9664 0H5.03356C2.25503 0 0 2.25503 0 5.03356V17.8792C0 27.8859 8.11409 36 18.1208 36C23.0638 36 27.5336 33.9966 30.7651 30.7651C33.9966 27.5336 36 23.0638 36 18.1208V5.03356C36 2.25503 33.755 0 30.9664 0ZM30.1409 23.8389C26.9698 28.4295 22.6611 30.9564 18 30.9564C13.3389 30.9564 9.04027 28.4295 5.85906 23.8389C5.07383 22.6913 5.36577 21.1208 6.50336 20.3356C7.65101 19.5403 9.22148 19.8322 10.0067 20.9698C12.2114 24.1711 15.0503 25.9228 18 25.9228C20.9497 25.9228 23.7886 24.1711 25.9933 20.9698C26.7886 19.8322 28.3591 19.5403 29.4966 20.3356C30.6443 21.1208 30.9262 22.6913 30.1409 23.8389Z" fill="#2CB26D"/>
<path d="M42.8816 15.1468H46.1809C46.2712 15.1468 46.3614 15.1968 46.4016 15.2769L50.3929 22.4849C50.4932 22.6551 50.7439 22.6551 50.8341 22.4849L54.8254 15.2769C54.8655 15.1968 54.9558 15.1468 55.0461 15.1468H58.3454C58.4858 15.1468 58.5961 15.2569 58.5961 15.3971V29.743C58.5961 29.8832 58.4858 29.9933 58.3454 29.9933H55.1463C55.0059 29.9933 54.8956 29.8832 54.8956 29.743V22.3748C54.8956 22.1145 54.5446 22.0244 54.4243 22.2547L50.8341 28.7319C50.7338 28.9021 50.4831 28.9021 50.3929 28.7319L46.8027 22.2547C46.6723 22.0244 46.3314 22.1145 46.3314 22.3748V29.743C46.3314 29.8832 46.221 29.9933 46.0806 29.9933H42.8816C42.7412 29.9933 42.6309 29.8832 42.6309 29.743V15.3971C42.6309 15.2569 42.7412 15.1468 42.8816 15.1468Z" fill="#424B52"/>
<path d="M70.9814 27.8409H65.4357C65.3354 27.8409 65.2351 27.9009 65.205 28.0011L64.4629 29.8431C64.4228 29.9432 64.3326 30.0033 64.2323 30.0033H60.6221C60.4415 30.0033 60.3212 29.8231 60.3814 29.6529L66.0675 15.307C66.1076 15.2069 66.1979 15.1468 66.3082 15.1468H70.119C70.2193 15.1468 70.3196 15.2069 70.3597 15.307L76.0458 29.6529C76.116 29.8231 75.9856 30.0033 75.8051 30.0033H72.1949C72.0946 30.0033 71.9943 29.9432 71.9642 29.8431L71.2221 28.0011C71.182 27.9009 71.0917 27.8409 70.9915 27.8409H70.9814ZM69.8683 24.5973L68.4442 20.9833C68.364 20.773 68.0531 20.773 67.9729 20.9833L66.5489 24.5973C66.4787 24.7675 66.609 24.9477 66.7895 24.9477H69.6376C69.8181 24.9477 69.9385 24.7675 69.8783 24.5973H69.8683Z" fill="#424B52"/>
<path d="M86.4349 29.9032L83.5868 25.8487C83.3662 25.5384 83.0152 25.3582 82.6341 25.3582H81.6714C81.531 25.3582 81.4207 25.4683 81.4207 25.6085V29.7531C81.4207 29.8932 81.3104 30.0033 81.17 30.0033H77.9709C77.8305 30.0033 77.7202 29.8932 77.7202 29.7531V15.4071C77.7202 15.267 77.8305 15.1569 77.9709 15.1569H84.6298C87.8991 15.1569 90.2858 17.2492 90.2858 20.2625C90.2858 22.3148 89.1727 23.9666 87.4077 24.7876C87.2673 24.8576 87.2071 25.0278 87.2974 25.158L90.4363 29.6129C90.5566 29.7831 90.4363 30.0134 90.2257 30.0134H86.6455C86.5653 30.0134 86.4851 29.9733 86.4349 29.9032ZM81.4207 21.7342C81.4207 21.8743 81.531 21.9844 81.6714 21.9844H84.2788C85.5624 21.9844 86.465 21.2937 86.465 20.2525C86.465 19.2114 85.5524 18.5206 84.2788 18.5206H81.6714C81.531 18.5206 81.4207 18.6307 81.4207 18.7709V21.7242V21.7342Z" fill="#424B52"/>
<path d="M92.9236 15.1468H96.1227C96.2631 15.1468 96.3734 15.2569 96.3734 15.3971V20.8031C96.3734 21.0333 96.6642 21.1434 96.8146 20.9733L101.819 15.2369C101.869 15.1768 101.939 15.1468 102.009 15.1468H105.72C105.941 15.1468 106.051 15.4071 105.91 15.5673L100.766 21.3036C100.686 21.3937 100.676 21.5239 100.746 21.624L106.432 29.6028C106.552 29.773 106.432 30.0033 106.221 30.0033H102.38C102.3 30.0033 102.22 29.9632 102.17 29.8932L98.2487 24.377C98.1584 24.2469 97.9679 24.2369 97.8576 24.347L96.4235 25.8887C96.4235 25.8887 96.3533 25.9988 96.3533 26.0589V29.753C96.3533 29.8932 96.243 30.0033 96.1026 30.0033H92.9035C92.7631 30.0033 92.6528 29.8932 92.6528 29.753V15.4071C92.6528 15.2669 92.7631 15.1568 92.9035 15.1568L92.9236 15.1468Z" fill="#424B52"/>
<path d="M111.768 19.6218C111.768 20.2625 112.289 20.7831 112.931 20.7831H118.798C118.938 20.7831 119.048 20.8932 119.048 21.0334V23.8365C119.048 23.9767 118.938 24.0868 118.798 24.0868H112.028C111.888 24.0868 111.778 24.1969 111.778 24.3371V26.4494C111.778 26.5896 111.888 26.6997 112.028 26.6997H119.54C119.68 26.6997 119.79 26.8098 119.79 26.95V29.7531C119.79 29.8932 119.68 30.0033 119.54 30.0033H108.328C108.187 30.0033 108.077 29.8932 108.077 29.7531V15.4071C108.077 15.267 108.187 15.1569 108.328 15.1569H119.54C119.68 15.1569 119.79 15.267 119.79 15.4071V18.2103C119.79 18.3504 119.68 18.4605 119.54 18.4605H112.941C112.299 18.4605 111.778 18.9811 111.778 19.6218H111.768Z" fill="#424B52"/>
<path d="M125.536 18.4605H121.514C121.374 18.4605 121.264 18.3504 121.264 18.2103V15.4071C121.264 15.267 121.374 15.1569 121.514 15.1569H133.739C133.879 15.1569 133.99 15.267 133.99 15.4071V18.2103C133.99 18.3504 133.879 18.4605 133.739 18.4605H129.738C129.597 18.4605 129.487 18.5707 129.487 18.7108V29.7531C129.487 29.8932 129.377 30.0033 129.236 30.0033H126.037C125.897 30.0033 125.786 29.8932 125.786 29.7531V18.7108C125.786 18.5707 125.676 18.4605 125.536 18.4605Z" fill="#424B52"/>
<path d="M63.0686 0.150085H60.9526C60.8623 0.150085 60.7721 0.200141 60.732 0.28023L58.1145 5.01549C58.0142 5.18568 57.7736 5.18568 57.6733 5.01549L55.0458 0.28023C55.0057 0.200141 54.9155 0.150085 54.8252 0.150085H52.7092C52.5688 0.150085 52.4585 0.260208 52.4585 0.400363V10.001C52.4585 10.1412 52.5688 10.2513 52.7092 10.2513H54.7249C54.8653 10.2513 54.9756 10.1412 54.9756 10.001V5.36588C54.9756 5.10559 55.3166 5.01549 55.447 5.24574L57.6833 9.27021C57.7836 9.4404 58.0243 9.4404 58.1246 9.27021L60.3408 5.25575C60.4712 5.0255 60.8122 5.1156 60.8122 5.37589V10.001C60.8122 10.1412 60.9225 10.2513 61.0629 10.2513H63.0786C63.219 10.2513 63.3293 10.1412 63.3293 10.001V0.410374C63.3293 0.270219 63.219 0.160097 63.0786 0.160097L63.0686 0.150085Z" fill="#7A889B"/>
<path d="M71.3024 0.310263C71.2623 0.210152 71.1721 0.150085 71.0718 0.150085H68.5948C68.4945 0.150085 68.3942 0.210152 68.3641 0.310263L64.5633 9.91092C64.4931 10.0711 64.6235 10.2513 64.794 10.2513H67.0805C67.1808 10.2513 67.271 10.1912 67.3111 10.0911L67.7724 8.92983C67.8126 8.82972 67.9028 8.76966 68.0031 8.76966H71.6635C71.7638 8.76966 71.854 8.82972 71.8941 8.92983L72.3554 10.0911C72.3955 10.1912 72.4858 10.2513 72.5861 10.2513H74.8826C75.0631 10.2513 75.1834 10.0711 75.1132 9.91092L71.2924 0.310263H71.3024ZM70.6807 6.80748H68.9859C68.8054 6.80748 68.685 6.62728 68.7552 6.4671L69.5976 4.3047C69.6778 4.09446 69.9787 4.09446 70.069 4.3047L70.9214 6.4671C70.9815 6.62728 70.8612 6.80748 70.6907 6.80748H70.6807Z" fill="#7A889B"/>
<path d="M82.8545 7.02772C82.7642 6.89758 82.8144 6.72739 82.9548 6.65731C84.108 6.08668 84.8301 4.99547 84.8301 3.62394C84.8301 1.58167 83.2155 0.150085 80.9792 0.150085H76.5466C76.4062 0.150085 76.2959 0.260208 76.2959 0.400363V10.001C76.2959 10.1412 76.4062 10.2513 76.5466 10.2513H78.5623C78.7027 10.2513 78.813 10.1412 78.813 10.001V7.34808C78.813 7.20792 78.9233 7.0978 79.0637 7.0978H79.9061C79.9864 7.0978 80.0666 7.13784 80.1067 7.20792L82.1926 10.1512C82.2428 10.2213 82.313 10.2613 82.3932 10.2613H84.6396C84.8401 10.2613 84.9605 10.0311 84.8401 9.86087L82.8445 7.02772H82.8545ZM80.7485 4.80525H79.0637C78.9233 4.80525 78.813 4.69513 78.813 4.55498V2.71293C78.813 2.57278 78.9233 2.46265 79.0637 2.46265H80.7485C81.621 2.46265 82.2428 2.93318 82.2428 3.63395C82.2428 4.33473 81.621 4.80525 80.7485 4.80525Z" fill="#7A889B"/>
<path d="M94.2769 0.150085H86.1238C85.9834 0.150085 85.873 0.260208 85.873 0.400363V2.1423C85.873 2.28245 85.9834 2.39258 86.1238 2.39258H88.7111C88.8515 2.39258 88.9618 2.5027 88.9618 2.64285V9.99101C88.9618 10.1312 89.0721 10.2413 89.2125 10.2413H91.2182C91.3586 10.2413 91.4689 10.1312 91.4689 9.99101V2.65286C91.4689 2.51271 91.5792 2.40259 91.7196 2.40259H94.2769C94.4173 2.40259 94.5276 2.29246 94.5276 2.15231V0.410374C94.5276 0.270219 94.4173 0.160097 94.2769 0.160097V0.150085Z" fill="#7A889B"/>
<path d="M47.2738 4.11457C45.7595 3.79421 45.2882 3.58398 45.2882 2.9733C45.2882 2.47275 45.7394 2.09232 46.5517 2.09232C47.4944 2.09232 48.4973 2.46273 49.4399 3.17352L50.1219 3.68409C50.182 3.75417 50.2623 3.7842 50.3626 3.7842C50.5531 3.7842 50.7035 3.63403 50.7035 3.44382V1.63181C50.7035 1.47163 50.6333 1.31146 50.513 1.22136C49.47 0.430478 48.2064 0 46.6119 0C44.4658 0 42.9515 1.13126 42.771 2.8832C42.751 3.00333 42.751 3.12347 42.751 3.2436C42.751 3.36373 42.751 3.49388 42.771 3.61401C42.9515 5.32591 44.4859 5.87652 46.5116 6.32702C47.9958 6.68742 48.4572 6.81757 48.4572 7.41824C48.4572 7.96885 47.9758 8.34927 47.0231 8.34927C45.9902 8.34927 45.0575 8.02891 44.2051 7.43826L43.6936 7.06785L43.0418 6.58731C43.0418 6.58731 42.9716 6.53726 42.9215 6.53726C42.8312 6.53726 42.751 6.61735 42.751 6.70745V8.87986C42.751 9.05005 42.8212 9.21023 42.9716 9.31034C44.0948 10.0612 45.4587 10.4616 46.9328 10.4616C49.4199 10.4616 50.9743 9.18019 50.9743 7.15795C50.9743 6.67741 50.8941 6.27697 50.6935 5.92658C50.172 4.94549 48.9485 4.49499 47.2537 4.13459L47.2738 4.11457Z" fill="#7A889B"/>
</g>
<defs>
<clipPath id="clip0_3927_5574">
<rect width="134" height="36" fill="white"/>
</clipPath>
</defs>
</svg>
